<?xml version="1.0" encoding="UTF-8" standalone="no"?><svg xmlns="http://www.w3.org/2000/svg" xmlns:xlink="http://www.w3.org/1999/xlink" clip-rule="evenodd" stroke-miterlimit="10" viewBox="0 0 1024 768"><desc>SVG generated by Keynote</desc><defs></defs><g transform="matrix(1.00, 0.00, -0.00, -1.00, 0.0, 768.0)"><path d="M 0.0 768.0 L 1024.0 768.0 L 1024.0 0.0 L 0.0 0.0 Z M 0.0 768.0 " fill="#000000"></path><g><clipPath id="clip0x6000008b1280"><path d="M 512.0 768.0 L 1024.0 768.0 L 1024.0 -1.0 L 512.0 -1.0 Z M 511.5 767.5 "></path></clipPath><g clip-path="url(#clip0x6000008b1280)"><image xlink:href="89260D98D312DF22CACBB2809F25DF08.jpeg" width="1247.00" height="818.00" transform="matrix(0.94, 0.00, -0.00, -0.94, 182.1, 767.5)"></image></g></g><text xml:space="preserve" font-family="Avenir-Light,Avenir" font-size="25.7" fill="#FEFFFF" transform="matrix(1.00, 0.00, -0.00, -1.00, 69.0, 396.9)">•</text><text xml:space="preserve" font-family="Avenir-Light,Avenir" font-size="28.5" fill="#FEFFFF" transform="matrix(1.00, 0.00, -0.00, -1.00, 98.3, 395.9)">G</text><text xml:space="preserve" font-family="Avenir-Light,Avenir" font-size="28.5" fill="#FEFFFF" transform="matrix(1.00, 0.00, -0.00, -1.00, 125.0, 395.9)">E</text><text xml:space="preserve" font-family="Avenir-Light,Avenir" font-size="28.5" fill="#FEFFFF" transform="matrix(1.00, 0.00, -0.00, -1.00, 146.5, 395.9)">T</text><text xml:space="preserve" font-family="Avenir-Light,Avenir" font-size="28.5" fill="#FEFFFF" transform="matrix(1.00, 0.00, -0.00, -1.00, 167.4, 395.9)"> </text><text xml:space="preserve" font-family="Avenir-Light,Avenir" font-size="28.5" fill="#FEFFFF" transform="matrix(1.00, 0.00, -0.00, -1.00, 179.4, 395.9)">I</text><text xml:space="preserve" font-family="Avenir-Light,Avenir" font-size="28.5" fill="#FEFFFF" transform="matrix(1.00, 0.00, -0.00, -1.00, 191.3, 395.9)">N</text><text xml:space="preserve" font-family="Avenir-Light,Avenir" font-size="28.5" fill="#FEFFFF" transform="matrix(1.00, 0.00, -0.00, -1.00, 218.1, 395.9)">S</text><text xml:space="preserve" font-family="Avenir-Light,Avenir" font-size="28.5" fill="#FEFFFF" transform="matrix(1.00, 0.00, -0.00, -1.00, 238.5, 395.9)">P</text><text xml:space="preserve" font-family="Avenir-Light,Avenir" font-size="28.5" fill="#FEFFFF" transform="matrix(1.00, 0.00, -0.00, -1.00, 259.4, 395.9)">I</text><text xml:space="preserve" font-family="Avenir-Light,Avenir" font-size="28.5" fill="#FEFFFF" transform="matrix(1.00, 0.00, -0.00, -1.00, 271.4, 395.9)">R</text><text xml:space="preserve" font-family="Avenir-Light,Avenir" font-size="28.5" fill="#FEFFFF" transform="matrix(1.00, 0.00, -0.00, -1.00, 292.8, 395.9)">E</text><text xml:space="preserve" font-family="Avenir-Light,Avenir" font-size="28.5" fill="#FEFFFF" transform="matrix(1.00, 0.00, -0.00, -1.00, 314.3, 395.9)">D</text><text xml:space="preserve" font-family="Avenir-Light,Avenir" font-size="28.5" fill="#FEFFFF" transform="matrix(1.00, 0.00, -0.00, -1.00, 340.0, 395.9)"> </text><text xml:space="preserve" font-family="Avenir-Light,Avenir" font-size="25.7" fill="#FEFFFF" transform="matrix(1.00, 0.00, -0.00, -1.00, 69.0, 350.1)">•</text><text xml:space="preserve" font-family="Avenir-Light,Avenir" font-size="28.5" fill="#FEFFFF" transform="matrix(1.00, 0.00, -0.00, -1.00, 98.3, 349.1)">U</text><text xml:space="preserve" font-family="Avenir-Light,Avenir" font-size="28.5" fill="#FEFFFF" transform="matrix(1.00, 0.00, -0.00, -1.00, 122.3, 349.1)">N</text><text xml:space="preserve" font-family="Avenir-Light,Avenir" font-size="28.5" fill="#FEFFFF" transform="matrix(1.00, 0.00, -0.00, -1.00, 149.1, 349.1)">D</text><text xml:space="preserve" font-family="Avenir-Light,Avenir" font-size="28.5" fill="#FEFFFF" transform="matrix(1.00, 0.00, -0.00, -1.00, 174.8, 349.1)">E</text><text xml:space="preserve" font-family="Avenir-Light,Avenir" font-size="28.5" fill="#FEFFFF" transform="matrix(1.00, 0.00, -0.00, -1.00, 196.2, 349.1)">R</text><text xml:space="preserve" font-family="Avenir-Light,Avenir" font-size="28.5" fill="#FEFFFF" transform="matrix(1.00, 0.00, -0.00, -1.00, 217.7, 349.1)">S</text><text xml:space="preserve" font-family="Avenir-Light,Avenir" font-size="28.5" fill="#FEFFFF" transform="matrix(1.00, 0.00, -0.00, -1.00, 238.1, 349.1)">T</text><text xml:space="preserve" font-family="Avenir-Light,Avenir" font-size="28.5" fill="#FEFFFF" transform="matrix(1.00, 0.00, -0.00, -1.00, 257.1, 349.1)">A</text><text xml:space="preserve" font-family="Avenir-Light,Avenir" font-size="28.5" fill="#FEFFFF" transform="matrix(1.00, 0.00, -0.00, -1.00, 281.1, 349.1)">N</text><text xml:space="preserve" font-family="Avenir-Light,Avenir" font-size="28.5" fill="#FEFFFF" transform="matrix(1.00, 0.00, -0.00, -1.00, 307.9, 349.1)">D</text><text xml:space="preserve" font-family="Avenir-Light,Avenir" font-size="28.5" fill="#FEFFFF" transform="matrix(1.00, 0.00, -0.00, -1.00, 333.6, 349.1)"> </text><text xml:space="preserve" font-family="Avenir-Light,Avenir" font-size="28.5" fill="#FEFFFF" transform="matrix(1.00, 0.00, -0.00, -1.00, 345.5, 349.1)">S</text><text xml:space="preserve" font-family="Avenir-Light,Avenir" font-size="28.5" fill="#FEFFFF" transform="matrix(1.00, 0.00, -0.00, -1.00, 365.9, 349.1)">C</text><text xml:space="preserve" font-family="Avenir-Light,Avenir" font-size="28.5" fill="#FEFFFF" transform="matrix(1.00, 0.00, -0.00, -1.00, 390.6, 349.1)">O</text><text xml:space="preserve" font-family="Avenir-Light,Avenir" font-size="28.5" fill="#FEFFFF" transform="matrix(1.00, 0.00, -0.00, -1.00, 418.9, 349.1)">P</text><text xml:space="preserve" font-family="Avenir-Light,Avenir" font-size="28.5" fill="#FEFFFF" transform="matrix(1.00, 0.00, -0.00, -1.00, 439.8, 349.1)">E</text><text xml:space="preserve" font-family="Avenir-Light,Avenir" font-size="28.5" fill="#FEFFFF" transform="matrix(1.00, 0.00, -0.00, -1.00, 461.3, 349.1)"> </text><text xml:space="preserve" font-family="Avenir-Light,Avenir" font-size="25.7" fill="#FEFFFF" transform="matrix(1.00, 0.00, -0.00, -1.00, 69.0, 303.3)">•</text><text xml:space="preserve" font-family="Avenir-Light,Avenir" font-size="28.5" fill="#FEFFFF" transform="matrix(1.00, 0.00, -0.00, -1.00, 98.3, 302.3)">L</text><text xml:space="preserve" font-family="Avenir-Light,Avenir" font-size="28.5" fill="#FEFFFF" transform="matrix(1.00, 0.00, -0.00, -1.00, 117.1, 302.3)">E</text><text xml:space="preserve" font-family="Avenir-Light,Avenir" font-size="28.5" fill="#FEFFFF" transform="matrix(1.00, 0.00, -0.00, -1.00, 138.6, 302.3)">A</text><text xml:space="preserve" font-family="Avenir-Light,Avenir" font-size="28.5" fill="#FEFFFF" transform="matrix(1.00, 0.00, -0.00, -1.00, 162.6, 302.3)">R</text><text xml:space="preserve" font-family="Avenir-Light,Avenir" font-size="28.5" fill="#FEFFFF" transform="matrix(1.00, 0.00, -0.00, -1.00, 184.1, 302.3)">N</text><text xml:space="preserve" font-family="Avenir-Light,Avenir" font-size="28.5" fill="#FEFFFF" transform="matrix(1.00, 0.00, -0.00, -1.00, 210.8, 302.3)">I</text><text xml:space="preserve" font-family="Avenir-Light,Avenir" font-size="28.5" fill="#FEFFFF" transform="matrix(1.00, 0.00, -0.00, -1.00, 222.8, 302.3)">N</text><text xml:space="preserve" font-family="Avenir-Light,Avenir" font-size="28.5" fill="#FEFFFF" transform="matrix(1.00, 0.00, -0.00, -1.00, 249.5, 302.3)">G</text><text xml:space="preserve" font-family="Avenir-Light,Avenir" font-size="28.5" fill="#FEFFFF" transform="matrix(1.00, 0.00, -0.00, -1.00, 276.3, 302.3)"> </text><text xml:space="preserve" font-family="Avenir-Light,Avenir" font-size="28.5" fill="#FEFFFF" transform="matrix(1.00, 0.00, -0.00, -1.00, 288.2, 302.3)">C</text><text xml:space="preserve" font-family="Avenir-Light,Avenir" font-size="28.5" fill="#FEFFFF" transform="matrix(1.00, 0.00, -0.00, -1.00, 312.9, 302.3)">U</text><text xml:space="preserve" font-family="Avenir-Light,Avenir" font-size="28.5" fill="#FEFFFF" transform="matrix(1.00, 0.00, -0.00, -1.00, 336.9, 302.3)">R</text><text xml:space="preserve" font-family="Avenir-Light,Avenir" font-size="28.5" fill="#FEFFFF" transform="matrix(1.00, 0.00, -0.00, -1.00, 358.6, 302.3)">V</text><text xml:space="preserve" font-family="Avenir-Light,Avenir" font-size="28.5" fill="#FEFFFF" transform="matrix(1.00, 0.00, -0.00, -1.00, 380.0, 302.3)">E</text><text xml:space="preserve" font-family="Avenir-Light,Avenir" font-size="28.5" fill="#FEFFFF" transform="matrix(1.00, 0.00, -0.00, -1.00, 401.5, 302.3)"> </text><text xml:space="preserve" font-family="Avenir-Light,Avenir" font-size="25.7" fill="#FEFFFF" transform="matrix(1.00, 0.00, -0.00, -1.00, 69.0, 256.5)">•</text><text xml:space="preserve" font-family="Avenir-Light,Avenir" font-size="28.5" fill="#FEFFFF" transform="matrix(1.00, 0.00, -0.00, -1.00, 98.3, 255.5)">P</text><text xml:space="preserve" font-family="Avenir-Light,Avenir" font-size="28.5" fill="#FEFFFF" transform="matrix(1.00, 0.00, -0.00, -1.00, 119.2, 255.5)">L</text><text xml:space="preserve" font-family="Avenir-Light,Avenir" font-size="28.5" fill="#FEFFFF" transform="matrix(1.00, 0.00, -0.00, -1.00, 138.0, 255.5)">A</text><text xml:space="preserve" font-family="Avenir-Light,Avenir" font-size="28.5" fill="#FEFFFF" transform="matrix(1.00, 0.00, -0.00, -1.00, 160.0, 255.5)">Y</text><text xml:space="preserve" font-family="Avenir-Light,Avenir" font-size="28.5" fill="#FEFFFF" transform="matrix(1.00, 0.00, -0.00, -1.00, 180.9, 255.5)"> </text><text xml:space="preserve" font-family="Avenir-Light,Avenir" font-size="28.5" fill="#FEFFFF" transform="matrix(1.00, 0.00, -0.00, -1.00, 192.9, 255.5)">W</text><text xml:space="preserve" font-family="Avenir-Light,Avenir" font-size="28.5" fill="#FEFFFF" transform="matrix(1.00, 0.00, -0.00, -1.00, 224.3, 255.5)">I</text><text xml:space="preserve" font-family="Avenir-Light,Avenir" font-size="28.5" fill="#FEFFFF" transform="matrix(1.00, 0.00, -0.00, -1.00, 236.3, 255.5)">T</text><text xml:space="preserve" font-family="Avenir-Light,Avenir" font-size="28.5" fill="#FEFFFF" transform="matrix(1.00, 0.00, -0.00, -1.00, 257.2, 255.5)">H</text><text xml:space="preserve" font-family="Avenir-Light,Avenir" font-size="28.5" fill="#FEFFFF" transform="matrix(1.00, 0.00, -0.00, -1.00, 282.4, 255.5)"> </text><text xml:space="preserve" font-family="Avenir-Light,Avenir" font-size="28.5" fill="#FEFFFF" transform="matrix(1.00, 0.00, -0.00, -1.00, 294.3, 255.5)">E</text><text xml:space="preserve" font-family="Avenir-Light,Avenir" font-size="28.5" fill="#FEFFFF" transform="matrix(1.00, 0.00, -0.00, -1.00, 315.8, 255.5)">X</text><text xml:space="preserve" font-family="Avenir-Light,Avenir" font-size="28.5" fill="#FEFFFF" transform="matrix(1.00, 0.00, -0.00, -1.00, 337.8, 255.5)">A</text><text xml:space="preserve" font-family="Avenir-Light,Avenir" font-size="28.5" fill="#FEFFFF" transform="matrix(1.00, 0.00, -0.00, -1.00, 361.9, 255.5)">M</text><text xml:space="preserve" font-family="Avenir-Light,Avenir" font-size="28.5" fill="#FEFFFF" transform="matrix(1.00, 0.00, -0.00, -1.00, 391.8, 255.5)">P</text><text xml:space="preserve" font-family="Avenir-Light,Avenir" font-size="28.5" fill="#FEFFFF" transform="matrix(1.00, 0.00, -0.00, -1.00, 412.7, 255.5)">L</text><text xml:space="preserve" font-family="Avenir-Light,Avenir" font-size="28.5" fill="#FEFFFF" transform="matrix(1.00, 0.00, -0.00, -1.00, 431.5, 255.5)">E</text><text xml:space="preserve" font-family="Avenir-Light,Avenir" font-size="28.5" fill="#FEFFFF" transform="matrix(1.00, 0.00, -0.00, -1.00, 452.9, 255.5)">S</text><text xml:space="preserve" font-family="Avenir-Light,Avenir" font-size="28.5" fill="#FEFFFF" transform="matrix(1.00, 0.00, -0.00, -1.00, 473.4, 255.5)"> </text><text xml:space="preserve" font-family="Avenir-Light,Avenir" font-size="25.7" fill="#FEFFFF" transform="matrix(1.00, 0.00, -0.00, -1.00, 69.0, 209.7)">•</text><text xml:space="preserve" font-family="Avenir-Light,Avenir" font-size="28.5" fill="#FEFFFF" transform="matrix(1.00, 0.00, -0.00, -1.00, 98.3, 208.7)">K</text><text xml:space="preserve" font-family="Avenir-Light,Avenir" font-size="28.5" fill="#FEFFFF" transform="matrix(1.00, 0.00, -0.00, -1.00, 120.3, 208.7)">N</text><text xml:space="preserve" font-family="Avenir-Light,Avenir" font-size="28.5" fill="#FEFFFF" transform="matrix(1.00, 0.00, -0.00, -1.00, 147.0, 208.7)">O</text><text xml:space="preserve" font-family="Avenir-Light,Avenir" font-size="28.5" fill="#FEFFFF" transform="matrix(1.00, 0.00, -0.00, -1.00, 175.3, 208.7)">W</text><text xml:space="preserve" font-family="Avenir-Light,Avenir" font-size="28.5" fill="#FEFFFF" transform="matrix(1.00, 0.00, -0.00, -1.00, 206.8, 208.7)"> </text><text xml:space="preserve" font-family="Avenir-Light,Avenir" font-size="28.5" fill="#FEFFFF" transform="matrix(1.00, 0.00, -0.00, -1.00, 218.8, 208.7)">W</text><text xml:space="preserve" font-family="Avenir-Light,Avenir" font-size="28.5" fill="#FEFFFF" transform="matrix(1.00, 0.00, -0.00, -1.00, 250.2, 208.7)">H</text><text xml:space="preserve" font-family="Avenir-Light,Avenir" font-size="28.5" fill="#FEFFFF" transform="matrix(1.00, 0.00, -0.00, -1.00, 275.4, 208.7)">E</text><text xml:space="preserve" font-family="Avenir-Light,Avenir" font-size="28.5" fill="#FEFFFF" transform="matrix(1.00, 0.00, -0.00, -1.00, 296.8, 208.7)">R</text><text xml:space="preserve" font-family="Avenir-Light,Avenir" font-size="28.5" fill="#FEFFFF" transform="matrix(1.00, 0.00, -0.00, -1.00, 318.3, 208.7)">E</text><text xml:space="preserve" font-family="Avenir-Light,Avenir" font-size="28.5" fill="#FEFFFF" transform="matrix(1.00, 0.00, -0.00, -1.00, 339.7, 208.7)"> </text><text xml:space="preserve" font-family="Avenir-Light,Avenir" font-size="28.5" fill="#FEFFFF" transform="matrix(1.00, 0.00, -0.00, -1.00, 351.7, 208.7)">T</text><text xml:space="preserve" font-family="Avenir-Light,Avenir" font-size="28.5" fill="#FEFFFF" transform="matrix(1.00, 0.00, -0.00, -1.00, 372.6, 208.7)">O</text><text xml:space="preserve" font-family="Avenir-Light,Avenir" font-size="28.5" fill="#FEFFFF" transform="matrix(1.00, 0.00, -0.00, -1.00, 401.0, 208.7)"> </text><text xml:space="preserve" font-family="Avenir-Light,Avenir" font-size="28.5" fill="#FEFFFF" transform="matrix(1.00, 0.00, -0.00, -1.00, 412.9, 208.7)">G</text><text xml:space="preserve" font-family="Avenir-Light,Avenir" font-size="28.5" fill="#FEFFFF" transform="matrix(1.00, 0.00, -0.00, -1.00, 439.7, 208.7)">O</text><text xml:space="preserve" font-family="Avenir-Book,Avenir" font-size="24.0" fill="#55D6FF" transform="matrix(1.00, 0.00, -0.00, -1.00, 78.0, 454.8)">O</text><text xml:space="preserve" font-family="Avenir-Book,Avenir" font-size="24.0" fill="#55D6FF" transform="matrix(1.00, 0.00, -0.00, -1.00, 101.9, 454.8)">B</text><text xml:space="preserve" font-family="Avenir-Book,Avenir" font-size="24.0" fill="#55D6FF" transform="matrix(1.00, 0.00, -0.00, -1.00, 120.8, 454.8)">J</text><text xml:space="preserve" font-family="Avenir-Book,Avenir" font-size="24.0" fill="#55D6FF" transform="matrix(1.00, 0.00, -0.00, -1.00, 136.2, 454.8)">E</text><text xml:space="preserve" font-family="Avenir-Book,Avenir" font-size="24.0" fill="#55D6FF" transform="matrix(1.00, 0.00, -0.00, -1.00, 154.3, 454.8)">C</text><text xml:space="preserve" font-family="Avenir-Book,Avenir" font-size="24.0" fill="#55D6FF" transform="matrix(1.00, 0.00, -0.00, -1.00, 175.0, 454.8)">T</text><text xml:space="preserve" font-family="Avenir-Book,Avenir" font-size="24.0" fill="#55D6FF" transform="matrix(1.00, 0.00, -0.00, -1.00, 192.6, 454.8)">I</text><text xml:space="preserve" font-family="Avenir-Book,Avenir" font-size="24.0" fill="#55D6FF" transform="matrix(1.00, 0.00, -0.00, -1.00, 202.8, 454.8)">V</text><text xml:space="preserve" font-family="Avenir-Book,Avenir" font-size="24.0" fill="#55D6FF" transform="matrix(1.00, 0.00, -0.00, -1.00, 221.3, 454.8)">E</text><text xml:space="preserve" font-family="Avenir-Book,Avenir" font-size="24.0" fill="#55D6FF" transform="matrix(1.00, 0.00, -0.00, -1.00, 239.4, 454.8)">S</text></g></svg>