<?xml version="1.0" encoding="UTF-8" standalone="no"?><svg xmlns="http://www.w3.org/2000/svg" xmlns:xlink="http://www.w3.org/1999/xlink" clip-rule="evenodd" stroke-miterlimit="10" viewBox="0 0 1024 768"><desc>SVG generated by Keynote</desc><defs></defs><g transform="matrix(1.00, 0.00, -0.00, -1.00, 0.0, 768.0)"><path d="M 0.0 768.0 L 1024.0 768.0 L 1024.0 0.0 L 0.0 0.0 Z M 0.0 768.0 " fill="#000000"></path><text xml:space="preserve" font-family="Avenir-Light,Avenir" font-size="45.0" fill="#FEFFFF" transform="matrix(1.00, 0.00, -0.00, -1.00, 88.0, 374.0)">F</text><text xml:space="preserve" font-family="Avenir-Light,Avenir" font-size="45.0" fill="#FEFFFF" transform="matrix(1.00, 0.00, -0.00, -1.00, 120.2, 374.0)">O</text><text xml:space="preserve" font-family="Avenir-Light,Avenir" font-size="45.0" fill="#FEFFFF" transform="matrix(1.00, 0.00, -0.00, -1.00, 164.9, 374.0)">R</text><text xml:space="preserve" font-family="Avenir-Light,Avenir" font-size="45.0" fill="#FEFFFF" transform="matrix(1.00, 0.00, -0.00, -1.00, 198.8, 374.0)">C</text><text xml:space="preserve" font-family="Avenir-Light,Avenir" font-size="45.0" fill="#FEFFFF" transform="matrix(1.00, 0.00, -0.00, -1.00, 237.7, 374.0)">E</text><text xml:space="preserve" font-family="Avenir-Light,Avenir" font-size="45.0" fill="#FEFFFF" transform="matrix(1.00, 0.00, -0.00, -1.00, 271.6, 374.0)"> </text><text xml:space="preserve" font-family="Avenir-Light,Avenir" font-size="45.0" fill="#FEFFFF" transform="matrix(1.00, 0.00, -0.00, -1.00, 290.5, 374.0)">L</text><text xml:space="preserve" font-family="Avenir-Light,Avenir" font-size="45.0" fill="#FEFFFF" transform="matrix(1.00, 0.00, -0.00, -1.00, 320.2, 374.0)">A</text><text xml:space="preserve" font-family="Avenir-Light,Avenir" font-size="45.0" fill="#FEFFFF" transform="matrix(1.00, 0.00, -0.00, -1.00, 354.9, 374.0)">Y</text><text xml:space="preserve" font-family="Avenir-Light,Avenir" font-size="45.0" fill="#FEFFFF" transform="matrix(1.00, 0.00, -0.00, -1.00, 387.9, 374.0)">O</text><text xml:space="preserve" font-family="Avenir-Light,Avenir" font-size="45.0" fill="#FEFFFF" transform="matrix(1.00, 0.00, -0.00, -1.00, 432.7, 374.0)">U</text><text xml:space="preserve" font-family="Avenir-Light,Avenir" font-size="45.0" fill="#FEFFFF" transform="matrix(1.00, 0.00, -0.00, -1.00, 470.6, 374.0)">T</text><text xml:space="preserve" font-family="Avenir-Book,Avenir" font-size="24.0" fill="#55D6FF" transform="matrix(1.00, 0.00, -0.00, -1.00, 88.0, 448.8)">G</text><text xml:space="preserve" font-family="Avenir-Book,Avenir" font-size="24.0" fill="#55D6FF" transform="matrix(1.00, 0.00, -0.00, -1.00, 110.5, 448.8)">E</text><text xml:space="preserve" font-family="Avenir-Book,Avenir" font-size="24.0" fill="#55D6FF" transform="matrix(1.00, 0.00, -0.00, -1.00, 128.6, 448.8)">T</text><text xml:space="preserve" font-family="Avenir-Book,Avenir" font-size="24.0" fill="#55D6FF" transform="matrix(1.00, 0.00, -0.00, -1.00, 146.2, 448.8)"> </text><text xml:space="preserve" font-family="Avenir-Book,Avenir" font-size="24.0" fill="#55D6FF" transform="matrix(1.00, 0.00, -0.00, -1.00, 156.7, 448.8)">I</text><text xml:space="preserve" font-family="Avenir-Book,Avenir" font-size="24.0" fill="#55D6FF" transform="matrix(1.00, 0.00, -0.00, -1.00, 166.9, 448.8)">N</text><text xml:space="preserve" font-family="Avenir-Book,Avenir" font-size="24.0" fill="#55D6FF" transform="matrix(1.00, 0.00, -0.00, -1.00, 189.4, 448.8)">S</text><text xml:space="preserve" font-family="Avenir-Book,Avenir" font-size="24.0" fill="#55D6FF" transform="matrix(1.00, 0.00, -0.00, -1.00, 206.6, 448.8)">P</text><text xml:space="preserve" font-family="Avenir-Book,Avenir" font-size="24.0" fill="#55D6FF" transform="matrix(1.00, 0.00, -0.00, -1.00, 224.2, 448.8)">I</text><text xml:space="preserve" font-family="Avenir-Book,Avenir" font-size="24.0" fill="#55D6FF" transform="matrix(1.00, 0.00, -0.00, -1.00, 234.4, 448.8)">R</text><text xml:space="preserve" font-family="Avenir-Book,Avenir" font-size="24.0" fill="#55D6FF" transform="matrix(1.00, 0.00, -0.00, -1.00, 252.4, 448.8)">E</text><text xml:space="preserve" font-family="Avenir-Book,Avenir" font-size="24.0" fill="#55D6FF" transform="matrix(1.00, 0.00, -0.00, -1.00, 270.5, 448.8)">D</text><image xlink:href="../../69BB1A0B-65D1-4BF8-B1E7-C23CB3BAB16D/assets/F89B97F584CE05A16220D3B79B785636.png" width="411.00" height="407.00" transform="matrix(1.00, 0.00, -0.00, -1.00, 508.5, 609.5)"></image><text xml:space="preserve" font-family="Avenir-Book,Avenir" font-size="24.0" fill="#55D6FF" transform="matrix(1.00, 0.00, -0.00, -1.00, 863.0, 70.8)">L</text><text xml:space="preserve" font-family="Avenir-Book,Avenir" font-size="24.0" fill="#55D6FF" transform="matrix(1.00, 0.00, -0.00, -1.00, 878.8, 70.8)">I</text><text xml:space="preserve" font-family="Avenir-Book,Avenir" font-size="24.0" fill="#55D6FF" transform="matrix(1.00, 0.00, -0.00, -1.00, 889.0, 70.8)">N</text><text xml:space="preserve" font-family="Avenir-Book,Avenir" font-size="24.0" fill="#55D6FF" transform="matrix(1.00, 0.00, -0.00, -1.00, 911.5, 70.8)">K</text><g><clipPath id="clip0x6000008bd340"><path d="M 862.0 67.4 L 930.5 67.4 L 930.5 70.6 L 862.0 70.6 Z M 862.0 67.4 "></path></clipPath><g clip-path="url(#clip0x6000008bd340)"><path d="M 4.0 45.0 L 71.5 45.0 " fill="none" stroke="#55D6FF" stroke-width="1.20" transform="matrix(1.00, 0.00, 0.00, -1.00, 859.0, 114.0)"></path></g></g></g></svg>