<?xml version="1.0" encoding="UTF-8" standalone="no"?><svg xmlns="http://www.w3.org/2000/svg" xmlns:xlink="http://www.w3.org/1999/xlink" clip-rule="evenodd" stroke-miterlimit="10" viewBox="0 0 1024 768"><desc>SVG generated by Keynote</desc><defs></defs><g transform="matrix(1.00, 0.00, -0.00, -1.00, 0.0, 768.0)"><path d="M 0.0 768.0 L 1024.0 768.0 L 1024.0 0.0 L 0.0 0.0 Z M 0.0 768.0 " fill="#000000"></path><text xml:space="preserve" font-family="Avenir-Light,Avenir" font-size="61.4" fill="#FEFFFF" transform="matrix(1.00, 0.00, -0.00, -1.00, 56.0, 365.5)">T</text><text xml:space="preserve" font-family="Avenir-Light,Avenir" font-size="61.4" fill="#FEFFFF" transform="matrix(1.00, 0.00, -0.00, -1.00, 101.1, 365.5)">H</text><text xml:space="preserve" font-family="Avenir-Light,Avenir" font-size="61.4" fill="#FEFFFF" transform="matrix(1.00, 0.00, -0.00, -1.00, 155.2, 365.5)">E</text><text xml:space="preserve" font-family="Avenir-Light,Avenir" font-size="61.4" fill="#FEFFFF" transform="matrix(1.00, 0.00, -0.00, -1.00, 201.4, 365.5)"> </text><text xml:space="preserve" font-family="Avenir-Light,Avenir" font-size="61.4" fill="#FEFFFF" transform="matrix(1.00, 0.00, -0.00, -1.00, 227.2, 365.5)">G</text><text xml:space="preserve" font-family="Avenir-Light,Avenir" font-size="61.4" fill="#FEFFFF" transform="matrix(1.00, 0.00, -0.00, -1.00, 284.8, 365.5)">E</text><text xml:space="preserve" font-family="Avenir-Light,Avenir" font-size="61.4" fill="#FEFFFF" transform="matrix(1.00, 0.00, -0.00, -1.00, 331.0, 365.5)">N</text><text xml:space="preserve" font-family="Avenir-Light,Avenir" font-size="61.4" fill="#FEFFFF" transform="matrix(1.00, 0.00, -0.00, -1.00, 388.6, 365.5)">E</text><text xml:space="preserve" font-family="Avenir-Light,Avenir" font-size="61.4" fill="#FEFFFF" transform="matrix(1.00, 0.00, -0.00, -1.00, 434.8, 365.5)">R</text><text xml:space="preserve" font-family="Avenir-Light,Avenir" font-size="61.4" fill="#FEFFFF" transform="matrix(1.00, 0.00, -0.00, -1.00, 481.0, 365.5)">A</text><text xml:space="preserve" font-family="Avenir-Light,Avenir" font-size="61.4" fill="#FEFFFF" transform="matrix(1.00, 0.00, -0.00, -1.00, 532.9, 365.5)">L</text><text xml:space="preserve" font-family="Avenir-Light,Avenir" font-size="61.4" fill="#FEFFFF" transform="matrix(1.00, 0.00, -0.00, -1.00, 573.4, 365.5)"> </text><text xml:space="preserve" font-family="Avenir-Light,Avenir" font-size="61.4" fill="#FEFFFF" transform="matrix(1.00, 0.00, -0.00, -1.00, 599.2, 365.5)">U</text><text xml:space="preserve" font-family="Avenir-Light,Avenir" font-size="61.4" fill="#FEFFFF" transform="matrix(1.00, 0.00, -0.00, -1.00, 651.0, 365.5)">P</text><text xml:space="preserve" font-family="Avenir-Light,Avenir" font-size="61.4" fill="#FEFFFF" transform="matrix(1.00, 0.00, -0.00, -1.00, 696.0, 365.5)">D</text><text xml:space="preserve" font-family="Avenir-Light,Avenir" font-size="61.4" fill="#FEFFFF" transform="matrix(1.00, 0.00, -0.00, -1.00, 751.3, 365.5)">A</text><text xml:space="preserve" font-family="Avenir-Light,Avenir" font-size="61.4" fill="#FEFFFF" transform="matrix(1.00, 0.00, -0.00, -1.00, 799.0, 365.5)">T</text><text xml:space="preserve" font-family="Avenir-Light,Avenir" font-size="61.4" fill="#FEFFFF" transform="matrix(1.00, 0.00, -0.00, -1.00, 844.1, 365.5)">E</text><text xml:space="preserve" font-family="Avenir-Light,Avenir" font-size="61.4" fill="#FEFFFF" transform="matrix(1.00, 0.00, -0.00, -1.00, 890.3, 365.5)"> </text><text xml:space="preserve" font-family="Avenir-Light,Avenir" font-size="61.4" fill="#FEFFFF" transform="matrix(1.00, 0.00, -0.00, -1.00, 56.0, 282.5)">P</text><text xml:space="preserve" font-family="Avenir-Light,Avenir" font-size="61.4" fill="#FEFFFF" transform="matrix(1.00, 0.00, -0.00, -1.00, 96.5, 282.5)">A</text><text xml:space="preserve" font-family="Avenir-Light,Avenir" font-size="61.4" fill="#FEFFFF" transform="matrix(1.00, 0.00, -0.00, -1.00, 144.2, 282.5)">T</text><text xml:space="preserve" font-family="Avenir-Light,Avenir" font-size="61.4" fill="#FEFFFF" transform="matrix(1.00, 0.00, -0.00, -1.00, 189.3, 282.5)">T</text><text xml:space="preserve" font-family="Avenir-Light,Avenir" font-size="61.4" fill="#FEFFFF" transform="matrix(1.00, 0.00, -0.00, -1.00, 234.3, 282.5)">E</text><text xml:space="preserve" font-family="Avenir-Light,Avenir" font-size="61.4" fill="#FEFFFF" transform="matrix(1.00, 0.00, -0.00, -1.00, 280.5, 282.5)">R</text><text xml:space="preserve" font-family="Avenir-Light,Avenir" font-size="61.4" fill="#FEFFFF" transform="matrix(1.00, 0.00, -0.00, -1.00, 326.7, 282.5)">N</text><text xml:space="preserve" font-family="Avenir-Book,Avenir" font-size="24.0" fill="#55D6FF" transform="matrix(1.00, 0.00, -0.00, -1.00, 56.0, 441.8)">L</text><text xml:space="preserve" font-family="Avenir-Book,Avenir" font-size="24.0" fill="#55D6FF" transform="matrix(1.00, 0.00, -0.00, -1.00, 71.8, 441.8)">E</text><text xml:space="preserve" font-family="Avenir-Book,Avenir" font-size="24.0" fill="#55D6FF" transform="matrix(1.00, 0.00, -0.00, -1.00, 89.9, 441.8)">A</text><text xml:space="preserve" font-family="Avenir-Book,Avenir" font-size="24.0" fill="#55D6FF" transform="matrix(1.00, 0.00, -0.00, -1.00, 110.2, 441.8)">R</text><text xml:space="preserve" font-family="Avenir-Book,Avenir" font-size="24.0" fill="#55D6FF" transform="matrix(1.00, 0.00, -0.00, -1.00, 128.3, 441.8)">N</text><text xml:space="preserve" font-family="Avenir-Book,Avenir" font-size="24.0" fill="#55D6FF" transform="matrix(1.00, 0.00, -0.00, -1.00, 150.8, 441.8)">I</text><text xml:space="preserve" font-family="Avenir-Book,Avenir" font-size="24.0" fill="#55D6FF" transform="matrix(1.00, 0.00, -0.00, -1.00, 161.0, 441.8)">N</text><text xml:space="preserve" font-family="Avenir-Book,Avenir" font-size="24.0" fill="#55D6FF" transform="matrix(1.00, 0.00, -0.00, -1.00, 183.5, 441.8)">G</text><text xml:space="preserve" font-family="Avenir-Book,Avenir" font-size="24.0" fill="#55D6FF" transform="matrix(1.00, 0.00, -0.00, -1.00, 206.0, 441.8)"> </text><text xml:space="preserve" font-family="Avenir-Book,Avenir" font-size="24.0" fill="#55D6FF" transform="matrix(1.00, 0.00, -0.00, -1.00, 216.5, 441.8)">C</text><text xml:space="preserve" font-family="Avenir-Book,Avenir" font-size="24.0" fill="#55D6FF" transform="matrix(1.00, 0.00, -0.00, -1.00, 237.2, 441.8)">U</text><text xml:space="preserve" font-family="Avenir-Book,Avenir" font-size="24.0" fill="#55D6FF" transform="matrix(1.00, 0.00, -0.00, -1.00, 257.6, 441.8)">R</text><text xml:space="preserve" font-family="Avenir-Book,Avenir" font-size="24.0" fill="#55D6FF" transform="matrix(1.00, 0.00, -0.00, -1.00, 275.8, 441.8)">V</text><text xml:space="preserve" font-family="Avenir-Book,Avenir" font-size="24.0" fill="#55D6FF" transform="matrix(1.00, 0.00, -0.00, -1.00, 294.3, 441.8)">E</text></g></svg>